<?xml version="1.0" standalone="no"?>
<!DOCTYPE svg PUBLIC "-//W3C//DTD SVG 20010904//EN"
 "http://www.w3.org/TR/2001/REC-SVG-20010904/DTD/svg10.dtd">
<svg version="1.0" xmlns="http://www.w3.org/2000/svg"
 width="1280.000000pt" height="1280.000000pt" viewBox="0 0 1280.000000 1280.000000"
 preserveAspectRatio="xMidYMid meet">
<metadata>
Created by potrace 1.11, written by Peter Selinger 2001-2013
</metadata>
<g transform="translate(0.000000,1280.000000) scale(0.100000,-0.100000)"
fill="#000000" stroke="none">
<path d="M7005 12650 c-44 -10 -99 -19 -122 -19 -50 -1 -214 -38 -227 -51 -6
-6 -16 -10 -24 -10 -8 0 -25 -8 -38 -19 -13 -10 -41 -22 -61 -26 -21 -4 -45
-13 -53 -20 -21 -18 -128 -75 -142 -75 -12 0 -96 -62 -141 -104 -15 -14 -40
-29 -55 -33 -30 -7 -89 -47 -144 -99 -20 -19 -42 -34 -48 -34 -5 0 -10 -3 -10
-7 0 -5 -35 -33 -79 -63 -43 -30 -91 -72 -106 -92 -16 -21 -38 -41 -49 -44
-21 -7 -69 -38 -94 -61 -7 -7 -16 -13 -20 -13 -4 0 -18 -18 -31 -39 -12 -21
-35 -45 -50 -54 -14 -8 -38 -26 -52 -39 -15 -13 -43 -36 -63 -51 -21 -16 -50
-46 -65 -68 -16 -21 -52 -57 -82 -81 -30 -23 -97 -86 -151 -140 -53 -54 -101
-98 -107 -98 -6 0 -11 -4 -11 -10 0 -12 -26 -43 -110 -130 l-65 -68 -47 5
c-64 7 -296 -42 -378 -79 -36 -17 -76 -35 -90 -41 -14 -6 -39 -22 -56 -34 -17
-13 -34 -23 -38 -23 -7 0 -112 -75 -132 -94 -6 -6 -29 -26 -52 -44 -92 -76
-214 -193 -298 -288 -38 -43 -82 -92 -96 -109 -40 -45 -110 -129 -135 -161
-64 -83 -93 -124 -93 -130 0 -5 -11 -19 -24 -33 -13 -15 -71 -96 -128 -181
-57 -85 -121 -177 -141 -205 -20 -27 -47 -70 -60 -95 -13 -25 -54 -89 -90
-144 -37 -54 -67 -103 -67 -108 0 -5 -5 -14 -10 -21 -23 -27 -60 -89 -60 -100
0 -7 -20 -41 -45 -76 -25 -36 -45 -70 -45 -76 0 -7 -9 -22 -20 -35 -11 -13
-20 -29 -20 -37 0 -8 -11 -29 -25 -47 -14 -18 -25 -36 -25 -39 0 -3 -13 -34
-29 -69 -15 -35 -31 -70 -35 -78 -3 -8 -20 -37 -36 -65 -17 -27 -39 -70 -50
-95 -12 -25 -25 -53 -30 -62 -6 -10 -10 -23 -10 -29 0 -6 -13 -31 -30 -56 -16
-24 -30 -49 -30 -55 0 -6 -12 -36 -26 -67 -14 -31 -31 -67 -36 -81 -6 -14 -16
-36 -22 -50 -7 -14 -19 -45 -26 -70 -8 -25 -22 -59 -31 -76 -9 -17 -20 -46
-24 -65 -4 -19 -15 -47 -24 -64 -9 -16 -25 -59 -35 -95 -9 -36 -26 -83 -36
-105 -18 -37 -66 -198 -77 -254 -2 -14 -6 -29 -9 -33 -3 -5 -8 -24 -11 -41 -2
-18 -11 -45 -19 -61 -8 -16 -23 -68 -34 -115 -10 -47 -23 -106 -29 -131 -6
-25 -22 -88 -35 -140 -14 -52 -26 -113 -26 -135 0 -22 -4 -56 -10 -75 -5 -19
-11 -46 -14 -60 -3 -14 -14 -61 -25 -105 -12 -50 -22 -136 -26 -230 -3 -82
-10 -166 -15 -185 -15 -62 -16 -848 -1 -937 5 -32 12 -96 16 -143 3 -47 14
-132 24 -190 11 -58 25 -134 31 -170 7 -36 14 -81 17 -100 2 -19 16 -84 29
-145 14 -60 27 -120 30 -133 2 -13 11 -42 18 -65 15 -45 35 -126 42 -167 5
-30 35 -121 45 -135 3 -5 14 -44 24 -85 10 -41 21 -80 26 -85 9 -12 40 -98 63
-175 9 -30 21 -65 26 -77 23 -54 29 -69 36 -93 4 -14 15 -37 25 -52 11 -14 19
-30 19 -34 0 -5 11 -31 24 -59 13 -27 41 -86 61 -130 20 -44 46 -98 58 -120
11 -22 24 -47 28 -55 5 -8 16 -33 25 -55 10 -22 28 -54 41 -71 13 -17 23 -35
23 -39 0 -5 7 -17 17 -27 15 -17 13 -22 -48 -82 -35 -36 -76 -84 -89 -106 -14
-23 -47 -66 -74 -96 -27 -30 -70 -84 -96 -122 -114 -165 -176 -259 -188 -282
-20 -39 -34 -61 -78 -120 -22 -30 -46 -69 -53 -87 -7 -18 -19 -38 -27 -44 -8
-6 -14 -18 -14 -27 0 -8 -10 -29 -23 -46 -12 -17 -28 -42 -35 -56 -6 -14 -16
-32 -20 -40 -42 -74 -112 -215 -112 -225 0 -5 -16 -35 -35 -65 -19 -30 -35
-62 -35 -71 0 -9 -13 -43 -30 -74 -16 -31 -30 -62 -30 -67 0 -5 -6 -24 -14
-41 -8 -18 -22 -55 -30 -83 -9 -28 -23 -60 -31 -70 -8 -10 -15 -26 -15 -34 0
-8 -6 -27 -14 -42 -18 -35 -43 -135 -56 -228 -6 -41 -13 -91 -16 -110 -4 -29
6 -99 31 -200 2 -8 4 -20 4 -26 2 -30 87 -135 136 -169 64 -43 203 -82 281
-78 27 1 71 3 98 3 27 0 77 7 110 16 34 9 72 18 86 20 14 2 90 19 170 39 287
68 516 118 575 125 66 8 194 39 210 50 6 4 46 15 90 25 152 32 822 185 1070
243 39 9 72 16 75 17 3 0 27 7 53 14 34 10 54 11 70 4 22 -11 65 -24 146 -44
37 -9 58 -7 134 12 106 26 179 71 226 139 34 49 62 63 201 95 41 10 80 21 85
25 6 4 30 11 55 15 81 12 215 48 230 60 8 7 38 18 65 24 28 6 59 14 70 16 77
18 143 36 160 44 11 5 70 21 130 36 61 15 115 31 121 36 6 5 58 20 115 34 57
14 119 33 137 41 18 8 40 17 50 19 54 10 151 38 179 51 17 7 39 14 50 14 10 0
35 9 56 20 20 11 43 20 50 20 8 0 27 6 43 14 16 8 40 17 54 19 14 2 32 7 40
10 29 11 115 37 120 36 3 0 30 9 60 21 30 12 66 24 80 27 13 2 29 8 35 12 5 4
37 16 70 25 33 10 78 27 101 37 22 10 48 19 58 19 10 0 34 7 54 16 62 27 76
32 102 40 14 3 45 15 70 26 25 11 56 25 70 30 14 6 33 15 44 20 10 5 44 16 75
24 31 8 71 24 89 35 18 10 63 26 100 35 37 9 74 22 82 29 23 19 77 43 112 50
18 4 51 20 72 36 22 16 48 29 57 29 9 0 22 7 29 15 7 8 16 13 20 10 4 -3 39
10 76 29 38 18 76 36 84 40 15 7 24 12 90 54 19 12 41 22 48 22 8 0 41 20 73
45 33 25 65 45 73 45 7 0 19 6 25 14 6 8 26 20 44 27 32 13 149 97 155 111 2
5 32 28 66 53 34 24 93 74 131 112 68 68 165 192 165 211 0 14 49 113 65 132
7 8 23 56 35 105 29 119 28 242 -1 361 -26 103 -39 133 -87 192 -39 48 -232
240 -272 271 -132 102 -207 151 -233 151 -11 0 -38 13 -62 29 -23 16 -66 34
-96 42 -30 7 -67 22 -84 34 -31 23 -51 31 -98 39 -16 3 -63 16 -105 30 -100
32 -178 52 -311 81 -41 9 -81 20 -90 24 -16 9 -260 69 -316 78 -16 3 -37 8
-45 12 -8 4 -40 9 -70 10 -30 1 -71 6 -90 11 -19 5 -48 11 -65 13 -16 3 -54
11 -83 17 -29 7 -59 9 -66 7 -8 -3 -40 0 -73 8 -32 7 -83 16 -113 19 -399 36
-474 40 -795 42 -192 2 -365 4 -382 4 -38 0 -42 16 -14 51 10 13 22 39 26 57
3 18 13 45 20 60 7 15 16 41 18 57 5 31 18 62 42 105 8 14 15 33 15 42 0 10 9
33 20 53 11 20 20 40 20 46 0 6 7 27 16 47 9 21 25 55 35 77 9 22 23 59 29 82
6 23 15 45 20 48 6 3 10 14 10 23 0 9 7 30 15 46 8 15 15 33 15 40 0 6 9 22
20 36 11 14 20 32 20 41 0 9 11 32 24 52 14 20 28 53 32 74 4 21 10 43 14 48
4 6 13 34 19 64 6 29 20 65 30 80 10 14 22 42 26 61 4 19 16 51 26 70 10 19
25 61 34 92 9 31 24 67 34 80 10 13 23 46 30 73 21 83 73 239 87 255 6 8 20
44 29 80 10 36 25 76 34 90 17 28 51 126 51 151 0 9 8 27 18 40 11 13 29 62
41 108 13 46 34 101 48 122 13 20 31 65 39 100 8 34 18 68 23 73 8 11 19 48
27 96 3 14 18 53 34 87 17 34 30 66 30 72 0 17 41 144 55 171 7 14 16 41 20
60 4 19 11 40 15 45 4 6 15 42 24 80 9 39 30 95 45 125 16 30 39 98 51 150 21
83 33 121 70 205 11 25 20 56 26 92 3 15 9 32 14 38 5 6 19 56 31 111 11 54
29 110 38 124 16 23 27 54 37 106 2 12 11 38 19 59 l16 37 47 -66 c26 -36 54
-68 62 -71 8 -3 35 -32 59 -66 25 -33 65 -82 91 -107 26 -26 57 -63 71 -82 24
-35 32 -44 98 -115 21 -22 50 -56 65 -75 28 -34 44 -52 193 -216 40 -44 85
-98 102 -121 16 -22 38 -47 48 -54 10 -8 30 -30 43 -49 13 -19 30 -39 38 -43
7 -5 26 -23 40 -40 15 -18 48 -52 73 -77 25 -25 54 -60 64 -78 11 -18 23 -32
26 -32 4 0 38 -35 75 -77 58 -68 158 -174 196 -210 26 -24 174 -179 195 -205
11 -14 27 -30 35 -34 7 -5 28 -27 46 -49 19 -22 60 -67 91 -100 31 -33 65 -74
75 -91 10 -17 31 -38 46 -47 15 -9 44 -37 66 -63 21 -25 52 -58 68 -73 16 -14
36 -35 45 -45 9 -11 55 -58 104 -106 48 -48 87 -90 87 -92 0 -3 26 -32 58 -65
31 -34 75 -81 97 -105 22 -23 63 -61 90 -83 77 -63 177 -169 197 -210 5 -11
30 -36 56 -54 43 -32 163 -143 215 -199 64 -69 152 -115 271 -143 111 -27 121
-27 227 -2 69 16 101 30 157 69 38 27 80 65 93 84 13 19 31 43 40 53 9 10 24
46 33 80 10 34 21 73 27 87 5 14 11 34 13 45 2 11 11 47 19 80 8 33 18 78 23
100 4 22 8 42 9 45 49 204 74 340 74 407 0 40 5 89 10 110 5 21 10 68 9 105 0
36 3 72 8 79 13 22 11 744 -3 824 -7 39 -9 93 -6 120 3 28 0 70 -7 95 -7 25
-16 72 -21 105 -4 33 -20 114 -34 180 -24 110 -39 191 -66 350 -14 80 -46 191
-69 240 -11 22 -27 71 -35 109 -9 37 -22 78 -29 90 -7 11 -19 44 -26 71 -7 28
-22 62 -32 77 -10 14 -18 32 -18 40 0 7 -9 24 -20 38 -11 14 -20 29 -20 33 0
5 -11 33 -25 63 -14 30 -25 58 -25 63 0 5 -7 14 -15 21 -8 7 -13 15 -10 19 2
4 -7 29 -20 56 -14 27 -25 52 -25 57 0 5 -11 24 -25 42 -14 18 -25 37 -25 43
0 6 -20 41 -45 77 -25 37 -45 74 -45 82 0 16 -15 38 -161 232 -52 70 -113 154
-136 187 -22 33 -54 72 -69 86 -16 14 -49 50 -74 78 -77 90 -144 162 -179 195
-19 17 -41 39 -50 50 -30 36 -190 189 -214 205 -13 9 -32 24 -42 34 -10 10
-43 37 -74 60 -31 22 -60 47 -64 54 -5 7 -14 18 -20 23 -53 43 -77 60 -109 79
-21 11 -53 30 -72 40 -18 11 -67 43 -107 72 -100 72 -230 159 -236 159 -3 0
-33 22 -67 49 -66 52 -105 74 -149 85 -15 4 -49 22 -76 41 -27 19 -51 35 -55
35 -3 0 -30 16 -59 35 -29 19 -76 42 -104 50 -28 8 -76 28 -105 44 -30 15 -67
31 -83 35 -16 4 -41 16 -56 27 -15 10 -34 19 -42 19 -9 0 -19 4 -22 10 -3 5
-32 17 -63 26 -31 9 -75 28 -97 44 -22 15 -56 31 -75 35 -19 4 -53 15 -75 26
l-41 19 -43 182 c-24 100 -53 198 -64 217 -29 53 -75 142 -86 171 -31 80 -196
220 -347 295 -122 61 -307 79 -449 45z"/>
</g>
</svg>
